<svg width="161" height="161" viewBox="0 0 161 161" fill="none" xmlns="http://www.w3.org/2000/svg">
<path d="M0 17C0 7.61116 7.61116 0 17 0H144C153.389 0 161 7.61116 161 17V144C161 153.389 153.389 161 144 161H17C7.61116 161 0 153.389 0 144V17Z" fill="#06B6D4"/>
<path fill-rule="evenodd" clip-rule="evenodd" d="M36 76.0263C38.9522 38.0316 73.8103 33.8232 85.1925 35.2237C134.229 41.2558 136.033 110.061 91.3377 121.139C72.5227 125.802 71.104 115.684 53.5003 123.645C42.6276 128.562 46.1248 117.915 45.9726 111.5C45.6816 99.2532 36.5169 101.288 36 76.0263Z" fill="#020202"/>
<path fill-rule="evenodd" clip-rule="evenodd" d="M43.1132 75.5395C45.6397 43.3958 75.4733 39.8353 85.2148 41.02C127.182 46.1232 128.727 104.333 90.4741 113.705C74.3712 117.65 73.1572 109.09 58.0907 115.825C48.7854 119.984 51.7785 110.976 51.6481 105.549C51.3995 95.1884 43.5553 96.9111 43.1132 75.5395Z" fill="#FDFEFD"/>
<path fill-rule="evenodd" clip-rule="evenodd" d="M84.9254 92.9616C80.2783 93.76 76.4508 93.0047 76.1227 92.9563C76.0167 92.9405 73.7329 92.509 72.2968 92.0179C70.0147 91.2374 69.4278 90.9084 69.1946 90.7779C68.3458 90.3021 67.1515 90.0542 67.0518 88.5379C66.9532 87.0321 68.3612 85.9816 69.7056 86.3937C70.3428 86.5889 71.7948 87.6053 74.8266 88.3358C75.3121 88.4526 77.2906 89.2353 81.8157 89.0768C84.1445 88.9953 85.1337 88.6116 86.7071 88.2226C90.8993 87.1868 91.4034 85.4942 93.1973 86.7163C94.3 87.4674 94.5412 89.4132 92.8947 90.2826C89.3179 92.1721 86.0142 92.7647 84.9254 92.9616Z" fill="#020202"/>
<path fill-rule="evenodd" clip-rule="evenodd" d="M73.0777 71.6047C73.0522 71.4589 72.9902 70.8221 72.6414 70.2574C71.2042 67.9321 68.0675 68.7805 67.354 70.5863C67.1292 71.1558 67.1069 71.8074 67.0995 71.8679C66.8901 73.6416 65.2748 74.02 64.5316 73.8284C61.9505 73.1637 62.8485 69.6958 63.9379 67.9879C66.8048 63.4916 71.9273 64.4179 73.7562 65.5426C77.0684 67.5789 77.2317 70.6289 77.2646 70.8268C77.7777 73.9095 75.2358 73.929 74.8573 73.8421C73.2383 73.47 73.145 72.0689 73.0777 71.6047Z" fill="#020202"/>
<path fill-rule="evenodd" clip-rule="evenodd" d="M88.0631 71.3621C88.0075 71.7426 88.0175 73.4558 86.1923 73.849C85.5382 73.99 84.5087 73.6258 84.1132 72.9084C83.5555 71.8979 83.7093 70.7626 84.1768 69.3153C84.7138 67.6521 86.2183 66.2847 86.7203 65.9663C87.0342 65.7674 88.3377 64.6758 90.8521 64.6026C90.9576 64.5995 92.8347 64.59 94.1632 65.2921C97.8995 67.2674 98.1932 70.4684 98.2367 71.6126C98.322 73.8711 95.4949 74.7005 94.3048 72.8379C93.8478 72.1232 94.2337 70.4984 92.8236 69.4247C91.37 68.3184 88.7247 68.7189 88.1066 71.1189C88.0859 71.1984 88.0838 71.2821 88.0631 71.3621Z" fill="#020202"/>
</svg>
